<svg xmlns="http://www.w3.org/2000/svg" xmlns:xlink="http://www.w3.org/1999/xlink" width="168" zoomAndPan="magnify" viewBox="0 0 126 32.249999" height="43" preserveAspectRatio="xMidYMid meet" version="1.0"><defs><g/><clipPath id="5da4417092"><path d="M 2 5 L 34 5 L 34 29.539062 L 2 29.539062 Z M 2 5 " clip-rule="nonzero"/></clipPath><clipPath id="ff93e5c33e"><rect x="0" width="90" y="0" height="16"/></clipPath></defs><g clip-path="url(#5da4417092)"><path fill="#40b93c" d="M 13.628906 16.898438 C 13.671875 15.59375 13.539062 13.730469 12.695312 12.042969 C 12.714844 12.105469 13.515625 14.550781 13.023438 16.957031 C 9.621094 15.964844 10.308594 13.296875 10.933594 11.363281 C 11.324219 10.160156 11.316406 9.214844 11.316406 9.214844 C 11.316406 9.214844 17.925781 12.628906 13.628906 16.898438 Z M 12.15625 23.957031 C 11.664062 22.316406 10.714844 20.054688 8.949219 18.304688 C 8.980469 18.347656 11.027344 21.066406 11.429688 24.285156 C 6.777344 24.46875 6.511719 20.863281 6.472656 18.195312 C 6.453125 16.535156 6.046875 15.359375 6.046875 15.359375 C 6.046875 15.359375 15.707031 16.851562 12.15625 23.957031 Z M 12.460938 5.9375 C 10 6.285156 5.417969 8.023438 4.574219 11.953125 C 4.574219 11.953125 -0.484375 16.101562 3.984375 20.664062 C 3.984375 20.664062 2.925781 24.058594 8.875 25.226562 C 8.875 25.226562 9.953125 26.136719 8.828125 29.535156 C 8.828125 29.535156 11.722656 28.726562 15.417969 25.960938 C 17.117188 24.6875 20.035156 21.324219 20.515625 16.957031 C 20.515625 16.957031 19.085938 21.484375 15.746094 24.542969 C 11.804688 19.476562 15.664062 16.28125 18.648438 14.097656 C 20.507812 12.738281 21.511719 11.339844 21.511719 11.339844 C 21.558594 11.4375 27.191406 22.679688 17.609375 24.917969 C 18.996094 25.496094 22.605469 26.535156 25.304688 23.140625 C 25.304688 23.140625 27.601562 23.472656 30.113281 22.917969 C 36.894531 21.425781 32.132812 3.15625 12.460938 5.9375 " fill-opacity="1" fill-rule="nonzero"/></g><g transform="matrix(1, 0, 0, 1, 34, 8)"><g clip-path="url(#ff93e5c33e)"><g fill="#40b93c" fill-opacity="1"><g transform="translate(0.700527, 11.56465)"><g><path d="M 8.5 -8.859375 L 10.9375 -8.859375 L 10.9375 0 L 8.6875 0 L 8.6875 -4.734375 L 6.484375 0 L 5.265625 0 L 3.078125 -4.765625 L 3.078125 0 L 0.8125 0 L 0.8125 -8.859375 L 3.265625 -8.859375 L 5.875 -3.21875 Z M 8.5 -8.859375 "/></g></g></g><g fill="#40b93c" fill-opacity="1"><g transform="translate(12.457236, 11.56465)"><g><path d="M 4.5625 0.125 C 3.851562 0.125 3.207031 -0.00390625 2.625 -0.265625 C 2.050781 -0.535156 1.597656 -0.890625 1.265625 -1.328125 C 0.929688 -1.773438 0.765625 -2.269531 0.765625 -2.8125 L 0.765625 -8.859375 L 3.03125 -8.859375 L 3.03125 -3.25 C 3.03125 -2.851562 3.175781 -2.519531 3.46875 -2.25 C 3.769531 -1.976562 4.132812 -1.84375 4.5625 -1.84375 C 5 -1.84375 5.363281 -1.976562 5.65625 -2.25 C 5.945312 -2.519531 6.09375 -2.851562 6.09375 -3.25 L 6.09375 -8.859375 L 8.359375 -8.859375 L 8.359375 -2.8125 C 8.359375 -2.269531 8.191406 -1.773438 7.859375 -1.328125 C 7.523438 -0.890625 7.066406 -0.535156 6.484375 -0.265625 C 5.910156 -0.00390625 5.269531 0.125 4.5625 0.125 Z M 4.5625 0.125 "/></g></g></g><g fill="#40b93c" fill-opacity="1"><g transform="translate(21.584934, 11.56465)"><g><path d="M 3.078125 -1.96875 L 5.890625 -1.96875 L 5.890625 0 L 0.8125 0 L 0.8125 -8.859375 L 3.078125 -8.859375 Z M 3.078125 -1.96875 "/></g></g></g><g fill="#40b93c" fill-opacity="1"><g transform="translate(27.478057, 11.56465)"><g><path d="M 6.453125 -8.859375 L 6.453125 -6.890625 L 4.28125 -6.890625 L 4.28125 0 L 2.03125 0 L 2.03125 -6.890625 L -0.140625 -6.890625 L -0.140625 -8.859375 Z M 6.453125 -8.859375 "/></g></g></g><g fill="#40b93c" fill-opacity="1"><g transform="translate(33.799504, 11.56465)"><g><path d="M 0.890625 0 L 0.890625 -8.859375 L 3.140625 -8.859375 L 3.140625 0 Z M 0.890625 0 "/></g></g></g><g fill="#40b93c" fill-opacity="1"><g transform="translate(37.81687, 11.56465)"><g><path d="M 8.5 -8.859375 L 10.9375 -8.859375 L 10.9375 0 L 8.6875 0 L 8.6875 -4.734375 L 6.484375 0 L 5.265625 0 L 3.078125 -4.765625 L 3.078125 0 L 0.8125 0 L 0.8125 -8.859375 L 3.265625 -8.859375 L 5.875 -3.21875 Z M 8.5 -8.859375 "/></g></g></g><g fill="#40b93c" fill-opacity="1"><g transform="translate(49.573579, 11.56465)"><g><path d="M 0.890625 0 L 0.890625 -8.859375 L 3.140625 -8.859375 L 3.140625 0 Z M 0.890625 0 "/></g></g></g><g fill="#40b93c" fill-opacity="1"><g transform="translate(53.590945, 11.56465)"><g><path d="M 7.171875 -8.859375 L 9.4375 -8.859375 L 9.4375 0 L 7.0625 0 L 3.078125 -5.4375 L 3.078125 0 L 0.8125 0 L 0.8125 -8.859375 L 3.171875 -8.859375 L 7.171875 -3.4375 Z M 7.171875 -8.859375 "/></g></g></g><g fill="#40b93c" fill-opacity="1"><g transform="translate(63.84114, 11.56465)"><g><path d="M 0.8125 0 L 0.8125 -8.859375 L 3.890625 -8.859375 C 4.492188 -8.859375 5.0625 -8.742188 5.59375 -8.515625 C 6.132812 -8.285156 6.609375 -7.96875 7.015625 -7.5625 C 7.421875 -7.15625 7.738281 -6.679688 7.96875 -6.140625 C 8.195312 -5.609375 8.3125 -5.039062 8.3125 -4.4375 C 8.3125 -3.820312 8.195312 -3.242188 7.96875 -2.703125 C 7.738281 -2.171875 7.421875 -1.703125 7.015625 -1.296875 C 6.609375 -0.890625 6.132812 -0.570312 5.59375 -0.34375 C 5.0625 -0.113281 4.492188 0 3.890625 0 Z M 3.078125 -1.96875 L 3.890625 -1.96875 C 4.296875 -1.96875 4.664062 -2.070312 5 -2.28125 C 5.332031 -2.5 5.59375 -2.796875 5.78125 -3.171875 C 5.96875 -3.546875 6.0625 -3.96875 6.0625 -4.4375 C 6.0625 -4.894531 5.96875 -5.3125 5.78125 -5.6875 C 5.59375 -6.0625 5.332031 -6.351562 5 -6.5625 C 4.664062 -6.78125 4.296875 -6.890625 3.890625 -6.890625 L 3.078125 -6.890625 Z M 3.078125 -1.96875 "/></g></g></g><g fill="#40b93c" fill-opacity="1"><g transform="translate(72.65867, 11.56465)"><g/></g></g><g fill="#40b93c" fill-opacity="1"><g transform="translate(76.203407, 11.56465)"><g><path d="M 6.25 0 L 5.765625 -1.546875 L 2.65625 -1.546875 L 2.171875 0 L -0.265625 0 L 2.9375 -8.859375 L 5.46875 -8.859375 L 8.671875 0 Z M 3.234375 -3.375 L 5.203125 -3.375 L 4.203125 -6.515625 Z M 3.234375 -3.375 "/></g></g></g><g fill="#40b93c" fill-opacity="1"><g transform="translate(84.622156, 11.56465)"><g><path d="M 0.890625 0 L 0.890625 -8.859375 L 3.140625 -8.859375 L 3.140625 0 Z M 0.890625 0 "/></g></g></g></g></g></svg>